<svg width="1200" height="800" xmlns="http://www.w3.org/2000/svg">
  <defs>
    <linearGradient id="browserGrad" x1="0%" y1="0%" x2="0%" y2="100%">
      <stop offset="0%" style="stop-color:#2D3748"/>
      <stop offset="100%" style="stop-color:#1A202C"/>
    </linearGradient>
    <filter id="shadow" x="-20%" y="-20%" width="140%" height="140%">
      <feDropShadow dx="0" dy="4" stdDeviation="8" flood-opacity="0.3"/>
    </filter>
  </defs>
  
  <!-- Browser Window -->
  <rect width="1200" height="800" fill="#0B1220"/>
  <rect x="60" y="40" width="1080" height="720" rx="12" fill="#1a1a2e" filter="url(#shadow)"/>
  
  <!-- Browser Chrome -->
  <rect x="60" y="40" width="1080" height="44" rx="12" fill="url(#browserGrad)"/>
  <rect x="60" y="72" width="1080" height="12" fill="url(#browserGrad)"/>
  <circle cx="88" cy="62" r="7" fill="#FF5F56"/>
  <circle cx="112" cy="62" r="7" fill="#FFBD2E"/>
  <circle cx="136" cy="62" r="7" fill="#27CA40"/>
  
  <!-- Dimmed Background -->
  <rect x="60" y="84" width="1080" height="676" fill="#0B1220" fill-opacity="0.8"/>
  
  <!-- Modal -->
  <rect x="150" y="90" width="900" height="620" rx="16" fill="#1a1a2e"/>
  
  <!-- Modal Header -->
  <rect x="150" y="90" width="900" height="70" rx="16" fill="#141428"/>
  <rect x="150" y="144" width="900" height="16" fill="#141428"/>
  <text x="200" y="135" font-family="system-ui" font-size="20" font-weight="bold" fill="#FFFFFF">📅 New Appointment</text>
  <circle cx="1010" cy="125" r="16" fill="#2D3748"/>
  <text x="1005" y="131" font-family="system-ui" font-size="18" fill="#A0AEC0">×</text>
  
  <!-- Progress Steps - Step 4 Active -->
  <rect x="200" y="180" width="800" height="50" rx="10" fill="#0f0f1a"/>
  
  <circle cx="280" cy="205" r="16" fill="#48BB78"/>
  <text x="274" y="211" font-family="system-ui" font-size="12" fill="#FFFFFF">✓</text>
  <text x="255" y="235" font-family="system-ui" font-size="10" fill="#48BB78">Client</text>
  
  <line x1="305" y1="205" x2="395" y2="205" stroke="#48BB78" stroke-width="2"/>
  
  <circle cx="420" cy="205" r="16" fill="#48BB78"/>
  <text x="414" y="211" font-family="system-ui" font-size="12" fill="#FFFFFF">✓</text>
  <text x="395" y="235" font-family="system-ui" font-size="10" fill="#48BB78">Service</text>
  
  <line x1="445" y1="205" x2="535" y2="205" stroke="#48BB78" stroke-width="2"/>
  
  <circle cx="560" cy="205" r="16" fill="#48BB78"/>
  <text x="554" y="211" font-family="system-ui" font-size="12" fill="#FFFFFF">✓</text>
  <text x="545" y="235" font-family="system-ui" font-size="10" fill="#48BB78">Staff</text>
  
  <line x1="585" y1="205" x2="675" y2="205" stroke="#48BB78" stroke-width="2"/>
  
  <circle cx="700" cy="205" r="16" fill="#7C7CF2"/>
  <text x="695" y="210" font-family="system-ui" font-size="11" font-weight="bold" fill="#FFFFFF">4</text>
  <text x="680" y="235" font-family="system-ui" font-size="10" fill="#7C7CF2">Time</text>
  
  <line x1="725" y1="205" x2="815" y2="205" stroke="#4A5568" stroke-width="2"/>
  
  <circle cx="840" cy="205" r="16" fill="#2D3748"/>
  <text x="835" y="210" font-family="system-ui" font-size="11" fill="#718096">5</text>
  <text x="815" y="235" font-family="system-ui" font-size="10" fill="#718096">Confirm</text>
  
  <!-- Summary Badges Row -->
  <rect x="200" y="255" width="150" height="30" rx="5" fill="#48BB78" fill-opacity="0.1"/>
  <text x="215" y="275" font-family="system-ui" font-size="11" fill="#48BB78">✓ Michelle Brown</text>
  
  <rect x="360" y="255" width="180" height="30" rx="5" fill="#7C7CF2" fill-opacity="0.1"/>
  <text x="375" y="275" font-family="system-ui" font-size="11" fill="#7C7CF2">✓ Haircut • $65 • 45min</text>
  
  <rect x="550" y="255" width="120" height="30" rx="5" fill="#ED8936" fill-opacity="0.1"/>
  <text x="565" y="275" font-family="system-ui" font-size="11" fill="#ED8936">✓ Sarah</text>
  
  <!-- Time Selection -->
  <text x="200" y="320" font-family="system-ui" font-size="16" font-weight="600" fill="#FFFFFF">Select Date &amp; Time</text>
  
  <!-- Calendar and Time Grid Container -->
  <rect x="200" y="345" width="380" height="320" rx="12" fill="#0f0f1a"/>
  <rect x="600" y="345" width="380" height="320" rx="12" fill="#0f0f1a"/>
  
  <!-- Mini Calendar -->
  <text x="280" y="380" font-family="system-ui" font-size="14" font-weight="600" fill="#FFFFFF">← December 2024 →</text>
  
  <!-- Calendar Header -->
  <text x="225" y="415" font-family="system-ui" font-size="11" fill="#718096">S</text>
  <text x="255" y="415" font-family="system-ui" font-size="11" fill="#718096">M</text>
  <text x="285" y="415" font-family="system-ui" font-size="11" fill="#718096">T</text>
  <text x="315" y="415" font-family="system-ui" font-size="11" fill="#718096">W</text>
  <text x="345" y="415" font-family="system-ui" font-size="11" fill="#718096">T</text>
  <text x="375" y="415" font-family="system-ui" font-size="11" fill="#718096">F</text>
  <text x="405" y="415" font-family="system-ui" font-size="11" fill="#718096">S</text>
  
  <!-- Calendar Days -->
  <text x="220" y="445" font-family="system-ui" font-size="12" fill="#4A5568">1</text>
  <text x="250" y="445" font-family="system-ui" font-size="12" fill="#FFFFFF">2</text>
  <text x="280" y="445" font-family="system-ui" font-size="12" fill="#FFFFFF">3</text>
  <text x="310" y="445" font-family="system-ui" font-size="12" fill="#FFFFFF">4</text>
  <text x="340" y="445" font-family="system-ui" font-size="12" fill="#FFFFFF">5</text>
  <text x="370" y="445" font-family="system-ui" font-size="12" fill="#FFFFFF">6</text>
  <text x="400" y="445" font-family="system-ui" font-size="12" fill="#4A5568">7</text>
  
  <text x="220" y="475" font-family="system-ui" font-size="12" fill="#4A5568">8</text>
  <text x="250" y="475" font-family="system-ui" font-size="12" fill="#FFFFFF">9</text>
  <text x="280" y="475" font-family="system-ui" font-size="12" fill="#FFFFFF">10</text>
  <text x="307" y="475" font-family="system-ui" font-size="12" fill="#FFFFFF">11</text>
  <text x="337" y="475" font-family="system-ui" font-size="12" fill="#FFFFFF">12</text>
  <text x="367" y="475" font-family="system-ui" font-size="12" fill="#FFFFFF">13</text>
  <text x="397" y="475" font-family="system-ui" font-size="12" fill="#4A5568">14</text>
  
  <text x="217" y="505" font-family="system-ui" font-size="12" fill="#4A5568">15</text>
  <text x="247" y="505" font-family="system-ui" font-size="12" fill="#FFFFFF">16</text>
  <!-- Selected Date -->
  <circle cx="285" cy="500" r="14" fill="#7C7CF2"/>
  <text x="280" y="505" font-family="system-ui" font-size="12" font-weight="bold" fill="#FFFFFF">17</text>
  <text x="307" y="505" font-family="system-ui" font-size="12" fill="#FFFFFF">18</text>
  <text x="337" y="505" font-family="system-ui" font-size="12" fill="#FFFFFF">19</text>
  <text x="367" y="505" font-family="system-ui" font-size="12" fill="#FFFFFF">20</text>
  <text x="397" y="505" font-family="system-ui" font-size="12" fill="#4A5568">21</text>
  
  <text x="217" y="535" font-family="system-ui" font-size="12" fill="#4A5568">22</text>
  <text x="247" y="535" font-family="system-ui" font-size="12" fill="#FFFFFF">23</text>
  <text x="277" y="535" font-family="system-ui" font-size="12" fill="#FFFFFF">24</text>
  <text x="307" y="535" font-family="system-ui" font-size="12" fill="#4A5568">25</text>
  <text x="337" y="535" font-family="system-ui" font-size="12" fill="#FFFFFF">26</text>
  <text x="367" y="535" font-family="system-ui" font-size="12" fill="#FFFFFF">27</text>
  <text x="397" y="535" font-family="system-ui" font-size="12" fill="#4A5568">28</text>
  
  <!-- Time Slots Header -->
  <text x="700" y="380" font-family="system-ui" font-size="14" font-weight="600" fill="#FFFFFF">Available Times</text>
  <text x="620" y="405" font-family="system-ui" font-size="11" fill="#718096">Tuesday, December 17</text>
  
  <!-- Time Slots -->
  <rect x="620" y="425" width="80" height="40" rx="6" fill="#0f0f1a" stroke="#2D3748"/>
  <text x="640" y="451" font-family="system-ui" font-size="13" fill="#A0AEC0">9:00 AM</text>
  
  <rect x="710" y="425" width="80" height="40" rx="6" fill="#0f0f1a" stroke="#2D3748"/>
  <text x="727" y="451" font-family="system-ui" font-size="13" fill="#A0AEC0">9:30 AM</text>
  
  <rect x="800" y="425" width="80" height="40" rx="6" fill="#0f0f1a" stroke="#2D3748"/>
  <text x="815" y="451" font-family="system-ui" font-size="13" fill="#A0AEC0">10:00 AM</text>
  
  <rect x="890" y="425" width="80" height="40" rx="6" fill="#0f0f1a" stroke="#2D3748"/>
  <text x="905" y="451" font-family="system-ui" font-size="13" fill="#A0AEC0">10:30 AM</text>
  
  <rect x="620" y="480" width="80" height="40" rx="6" fill="#7C7CF2" stroke="#7C7CF2" stroke-width="2"/>
  <text x="635" y="506" font-family="system-ui" font-size="13" font-weight="600" fill="#FFFFFF">11:00 AM</text>
  
  <!-- Pulse animation for selected time -->
  <rect x="615" y="475" width="90" height="50" rx="8" fill="none" stroke="#7C7CF2" stroke-width="2" opacity="0.5">
    <animate attributeName="opacity" values="0.5;0;0.5" dur="1.5s" repeatCount="indefinite"/>
  </rect>
  
  <rect x="710" y="480" width="80" height="40" rx="6" fill="#0f0f1a" stroke="#2D3748"/>
  <text x="725" y="506" font-family="system-ui" font-size="13" fill="#A0AEC0">11:30 AM</text>
  
  <rect x="800" y="480" width="80" height="40" rx="6" fill="#0f0f1a" stroke="#2D3748"/>
  <text x="815" y="506" font-family="system-ui" font-size="13" fill="#A0AEC0">12:00 PM</text>
  
  <rect x="890" y="480" width="80" height="40" rx="6" fill="#0f0f1a" stroke="#2D3748"/>
  <text x="905" y="506" font-family="system-ui" font-size="13" fill="#A0AEC0">12:30 PM</text>
  
  <!-- More times -->
  <rect x="620" y="535" width="80" height="40" rx="6" fill="#0f0f1a" stroke="#2D3748"/>
  <text x="640" y="561" font-family="system-ui" font-size="13" fill="#A0AEC0">1:00 PM</text>
  
  <rect x="710" y="535" width="80" height="40" rx="6" fill="#0f0f1a" stroke="#2D3748"/>
  <text x="730" y="561" font-family="system-ui" font-size="13" fill="#A0AEC0">1:30 PM</text>
  
  <rect x="800" y="535" width="80" height="40" rx="6" fill="#0f0f1a" stroke="#2D3748"/>
  <text x="820" y="561" font-family="system-ui" font-size="13" fill="#A0AEC0">2:00 PM</text>
  
  <rect x="890" y="535" width="80" height="40" rx="6" fill="#0f0f1a" stroke="#2D3748"/>
  <text x="910" y="561" font-family="system-ui" font-size="13" fill="#A0AEC0">2:30 PM</text>
  
  <!-- Unavailable slot -->
  <rect x="620" y="590" width="80" height="40" rx="6" fill="#FC8181" fill-opacity="0.1" stroke="#FC8181" stroke-opacity="0.3"/>
  <text x="640" y="616" font-family="system-ui" font-size="13" fill="#FC8181" fill-opacity="0.5">3:00 PM</text>
  
  <!-- Action Buttons -->
  <rect x="820" y="680" width="80" height="44" rx="8" fill="transparent" stroke="#4A5568"/>
  <text x="843" y="708" font-family="system-ui" font-size="13" fill="#A0AEC0">Back</text>
  
  <rect x="910" y="680" width="80" height="44" rx="8" fill="#7C7CF2"/>
  <text x="928" y="708" font-family="system-ui" font-size="13" font-weight="600" fill="#FFFFFF">Next</text>
</svg>