<svg width="1200" height="800" xmlns="http://www.w3.org/2000/svg">
  <defs>
    <linearGradient id="browserGrad" x1="0%" y1="0%" x2="0%" y2="100%">
      <stop offset="0%" style="stop-color:#2D3748"/>
      <stop offset="100%" style="stop-color:#1A202C"/>
    </linearGradient>
    <filter id="shadow" x="-20%" y="-20%" width="140%" height="140%">
      <feDropShadow dx="0" dy="4" stdDeviation="8" flood-opacity="0.3"/>
    </filter>
  </defs>
  
  <!-- Browser Window -->
  <rect width="1200" height="800" fill="#0B1220"/>
  <rect x="60" y="40" width="1080" height="720" rx="12" fill="#FFFFFF" filter="url(#shadow)"/>
  
  <!-- Browser Chrome -->
  <rect x="60" y="40" width="1080" height="44" rx="12" fill="url(#browserGrad)"/>
  <rect x="60" y="72" width="1080" height="12" fill="url(#browserGrad)"/>
  <circle cx="88" cy="62" r="7" fill="#FF5F56"/>
  <circle cx="112" cy="62" r="7" fill="#FFBD2E"/>
  <circle cx="136" cy="62" r="7" fill="#27CA40"/>
  
  <!-- URL Bar -->
  <rect x="200" y="52" width="400" height="24" rx="4" fill="#0B1220"/>
  <text x="220" y="69" font-family="system-ui" font-size="12" fill="#48BB78">🔒 book.neono.io/bella-salon</text>
  
  <!-- Live Booking Page Preview -->
  <rect x="60" y="84" width="1080" height="676" fill="#FFFFFF"/>
  
  <!-- Header Banner -->
  <rect x="60" y="84" width="1080" height="180" fill="#7C7CF2"/>
  
  <!-- Cover Image Overlay Pattern -->
  <rect x="60" y="84" width="1080" height="180" fill="url(#pattern)" fill-opacity="0.1"/>
  
  <!-- Logo and Business Info -->
  <circle cx="160" cy="200" r="50" fill="#FFFFFF"/>
  <text x="138" y="215" font-family="system-ui" font-size="40" font-weight="bold" fill="#7C7CF2">B</text>
  
  <text x="230" y="185" font-family="system-ui" font-size="28" font-weight="bold" fill="#FFFFFF">Bella Salon</text>
  <text x="230" y="215" font-family="system-ui" font-size="14" fill="rgba(255,255,255,0.9)">📍 123 Main Street, New York, NY 10001</text>
  <text x="230" y="240" font-family="system-ui" font-size="13" fill="rgba(255,255,255,0.8)">⭐ 4.9 (127 reviews) • Open until 7:00 PM</text>
  
  <!-- Description -->
  <rect x="120" y="290" width="960" height="60" rx="8" fill="#F7FAFC"/>
  <text x="150" y="320" font-family="system-ui" font-size="14" fill="#4A5568">Welcome to Bella Salon! We specialize in precision haircuts, vibrant color services, and relaxing spa</text>
  <text x="150" y="340" font-family="system-ui" font-size="14" fill="#4A5568">treatments. Book your appointment today!</text>
  
  <!-- Service Selection -->
  <text x="120" y="390" font-family="system-ui" font-size="18" font-weight="600" fill="#1a1a2e">Select a service</text>
  
  <!-- Service Categories -->
  <rect x="120" y="410" width="960" height="80" rx="10" fill="#FFFFFF" stroke="#E2E8F0"/>
  
  <rect x="140" y="430" width="200" height="50" rx="8" fill="#7C7CF2" fill-opacity="0.1" stroke="#7C7CF2"/>
  <text x="205" y="462" font-family="system-ui" font-size="14" font-weight="500" fill="#7C7CF2">✂️ Hair Services</text>
  
  <rect x="360" y="430" width="200" height="50" rx="8" fill="#F7FAFC" stroke="#E2E8F0"/>
  <text x="425" y="462" font-family="system-ui" font-size="14" fill="#4A5568">💅 Nail Services</text>
  
  <rect x="580" y="430" width="200" height="50" rx="8" fill="#F7FAFC" stroke="#E2E8F0"/>
  <text x="645" y="462" font-family="system-ui" font-size="14" fill="#4A5568">🧖 Spa Services</text>
  
  <!-- Service Cards -->
  <rect x="120" y="510" width="460" height="100" rx="10" fill="#FFFFFF" stroke="#E2E8F0"/>
  <text x="150" y="545" font-family="system-ui" font-size="16" font-weight="600" fill="#1a1a2e">Women's Haircut &amp; Blow Dry</text>
  <text x="150" y="570" font-family="system-ui" font-size="14" fill="#718096">45 min • Includes shampoo and styling</text>
  <text x="150" y="595" font-family="system-ui" font-size="18" font-weight="600" fill="#7C7CF2">$65</text>
  <rect x="480" y="545" width="80" height="40" rx="6" fill="#7C7CF2"/>
  <text x="500" y="572" font-family="system-ui" font-size="13" fill="#FFFFFF">Select</text>
  
  <rect x="620" y="510" width="460" height="100" rx="10" fill="#FFFFFF" stroke="#E2E8F0"/>
  <text x="650" y="545" font-family="system-ui" font-size="16" font-weight="600" fill="#1a1a2e">Color Service</text>
  <text x="650" y="570" font-family="system-ui" font-size="14" fill="#718096">2 hr • Full color with toner</text>
  <text x="650" y="595" font-family="system-ui" font-size="18" font-weight="600" fill="#7C7CF2">from $120</text>
  <rect x="980" y="545" width="80" height="40" rx="6" fill="#FFFFFF" stroke="#7C7CF2"/>
  <text x="1000" y="572" font-family="system-ui" font-size="13" fill="#7C7CF2">Select</text>
  
  <rect x="120" y="630" width="460" height="100" rx="10" fill="#FFFFFF" stroke="#E2E8F0"/>
  <text x="150" y="665" font-family="system-ui" font-size="16" font-weight="600" fill="#1a1a2e">Blowout</text>
  <text x="150" y="690" font-family="system-ui" font-size="14" fill="#718096">30 min • Professional styling</text>
  <text x="150" y="715" font-family="system-ui" font-size="18" font-weight="600" fill="#7C7CF2">$45</text>
  <rect x="480" y="665" width="80" height="40" rx="6" fill="#FFFFFF" stroke="#7C7CF2"/>
  <text x="500" y="692" font-family="system-ui" font-size="13" fill="#7C7CF2">Select</text>
  
  <rect x="620" y="630" width="460" height="100" rx="10" fill="#FFFFFF" stroke="#E2E8F0"/>
  <text x="650" y="665" font-family="system-ui" font-size="16" font-weight="600" fill="#1a1a2e">Men's Haircut</text>
  <text x="650" y="690" font-family="system-ui" font-size="14" fill="#718096">30 min • Classic or modern styles</text>
  <text x="650" y="715" font-family="system-ui" font-size="18" font-weight="600" fill="#7C7CF2">$45</text>
  <rect x="980" y="665" width="80" height="40" rx="6" fill="#FFFFFF" stroke="#7C7CF2"/>
  <text x="1000" y="692" font-family="system-ui" font-size="13" fill="#7C7CF2">Select</text>
  
  <!-- Powered by NeonO -->
  <text x="530" y="755" font-family="system-ui" font-size="11" fill="#A0AEC0">Powered by</text>
  <text x="598" y="755" font-family="system-ui" font-size="11" font-weight="bold" fill="#7C7CF2">NeonO</text>
</svg>