<svg width="1200" height="800" viewBox="0 0 1200 800" fill="none" xmlns="http://www.w3.org/2000/svg">
  <!-- Browser Chrome -->
  <rect width="1200" height="800" rx="12" fill="#1a1a2e"/>
  <rect x="1" y="1" width="1198" height="798" rx="11" fill="white" stroke="#e5e7eb"/>
  
  <!-- Browser Header -->
  <rect x="1" y="1" width="1198" height="52" rx="11" fill="#f9fafb"/>
  <rect x="1" y="40" width="1198" height="13" fill="#f9fafb"/>
  <line x1="1" y1="53" x2="1199" y2="53" stroke="#e5e7eb"/>
  
  <!-- Traffic Lights -->
  <circle cx="24" cy="27" r="6" fill="#ff5f57"/>
  <circle cx="44" cy="27" r="6" fill="#febc2e"/>
  <circle cx="64" cy="27" r="6" fill="#28c840"/>
  
  <!-- URL Bar -->
  <rect x="200" y="14" width="800" height="28" rx="6" fill="#ffffff" stroke="#e5e7eb"/>
  <text x="220" y="33" font-family="system-ui, -apple-system, sans-serif" font-size="13" fill="#6b7280">app.neono.io/settings/business-hours</text>
  
  <!-- Sidebar -->
  <rect x="1" y="53" width="240" height="746" fill="#f8fafc"/>
  <line x1="241" y1="53" x2="241" y2="799" stroke="#e5e7eb"/>
  
  <!-- Sidebar Logo -->
  <rect x="24" y="77" width="36" height="36" rx="8" fill="#7C7CF2"/>
  <text x="32" y="102" font-family="system-ui, sans-serif" font-size="18" font-weight="bold" fill="white">N</text>
  <text x="72" y="100" font-family="system-ui, sans-serif" font-size="16" font-weight="600" fill="#0B1220">NeonO</text>
  
  <!-- Sidebar Settings Submenu -->
  <text x="24" y="150" font-family="system-ui, sans-serif" font-size="11" font-weight="600" fill="#9ca3af">SETTINGS</text>
  
  <rect x="12" y="164" width="216" height="36" rx="6" fill="#f1f5f9"/>
  <text x="36" y="188" font-family="system-ui, sans-serif" font-size="13" fill="#64748b">General</text>
  
  <rect x="12" y="206" width="216" height="36" rx="6" fill="#f1f5f9"/>
  <text x="36" y="230" font-family="system-ui, sans-serif" font-size="13" fill="#64748b">Business Profile</text>
  
  <!-- Active Hours Item -->
  <rect x="12" y="248" width="216" height="36" rx="6" fill="#7C7CF2" fill-opacity="0.1"/>
  <rect x="12" y="248" width="3" height="36" rx="1" fill="#7C7CF2"/>
  <text x="36" y="272" font-family="system-ui, sans-serif" font-size="13" font-weight="600" fill="#7C7CF2">Business Hours</text>
  
  <rect x="12" y="290" width="216" height="36" rx="6" fill="#f1f5f9"/>
  <text x="36" y="314" font-family="system-ui, sans-serif" font-size="13" fill="#64748b">Online Booking</text>
  
  <rect x="12" y="332" width="216" height="36" rx="6" fill="#f1f5f9"/>
  <text x="36" y="356" font-family="system-ui, sans-serif" font-size="13" fill="#64748b">Notifications</text>
  
  <!-- Main Content -->
  <rect x="241" y="53" width="958" height="746" fill="white"/>
  
  <!-- Page Header -->
  <text x="280" y="105" font-family="system-ui, sans-serif" font-size="24" font-weight="bold" fill="#0B1220">Business Hours</text>
  <text x="280" y="130" font-family="system-ui, sans-serif" font-size="14" fill="#64748b">Set when your salon is open for appointments</text>
  
  <!-- Save Button -->
  <rect x="1020" y="85" width="140" height="44" rx="8" fill="#7C7CF2"/>
  <text x="1055" y="113" font-family="system-ui, sans-serif" font-size="14" font-weight="600" fill="white">Save Hours</text>
  
  <!-- Hours Card -->
  <rect x="280" y="160" width="880" height="600" rx="12" fill="white" stroke="#e5e7eb"/>
  
  <!-- Column Headers -->
  <text x="320" y="200" font-family="system-ui, sans-serif" font-size="13" font-weight="600" fill="#64748b">DAY</text>
  <text x="500" y="200" font-family="system-ui, sans-serif" font-size="13" font-weight="600" fill="#64748b">STATUS</text>
  <text x="650" y="200" font-family="system-ui, sans-serif" font-size="13" font-weight="600" fill="#64748b">OPENING TIME</text>
  <text x="880" y="200" font-family="system-ui, sans-serif" font-size="13" font-weight="600" fill="#64748b">CLOSING TIME</text>
  <text x="1070" y="200" font-family="system-ui, sans-serif" font-size="13" font-weight="600" fill="#64748b">BREAK</text>
  
  <line x1="300" y1="220" x2="1140" y2="220" stroke="#e5e7eb"/>
  
  <!-- Monday Row -->
  <text x="320" y="260" font-family="system-ui, sans-serif" font-size="14" font-weight="500" fill="#0B1220">Monday</text>
  
  <!-- Toggle On -->
  <rect x="500" y="242" width="48" height="28" rx="14" fill="#7C7CF2"/>
  <circle cx="534" cy="256" r="10" fill="white"/>
  
  <rect x="620" y="240" width="140" height="40" rx="8" fill="white" stroke="#d1d5db"/>
  <text x="648" y="266" font-family="system-ui, sans-serif" font-size="14" fill="#111827">9:00 AM</text>
  
  <rect x="850" y="240" width="140" height="40" rx="8" fill="white" stroke="#d1d5db"/>
  <text x="878" y="266" font-family="system-ui, sans-serif" font-size="14" fill="#111827">6:00 PM</text>
  
  <rect x="1060" y="244" width="80" height="32" rx="6" fill="#f1f5f9"/>
  <text x="1078" y="266" font-family="system-ui, sans-serif" font-size="12" fill="#7C7CF2">+ Add</text>
  
  <line x1="300" y1="300" x2="1140" y2="300" stroke="#f1f5f9"/>
  
  <!-- Tuesday Row -->
  <text x="320" y="340" font-family="system-ui, sans-serif" font-size="14" font-weight="500" fill="#0B1220">Tuesday</text>
  
  <rect x="500" y="322" width="48" height="28" rx="14" fill="#7C7CF2"/>
  <circle cx="534" cy="336" r="10" fill="white"/>
  
  <rect x="620" y="320" width="140" height="40" rx="8" fill="white" stroke="#d1d5db"/>
  <text x="648" y="346" font-family="system-ui, sans-serif" font-size="14" fill="#111827">9:00 AM</text>
  
  <rect x="850" y="320" width="140" height="40" rx="8" fill="white" stroke="#d1d5db"/>
  <text x="878" y="346" font-family="system-ui, sans-serif" font-size="14" fill="#111827">6:00 PM</text>
  
  <rect x="1060" y="324" width="80" height="32" rx="6" fill="#f1f5f9"/>
  <text x="1078" y="346" font-family="system-ui, sans-serif" font-size="12" fill="#7C7CF2">+ Add</text>
  
  <line x1="300" y1="380" x2="1140" y2="380" stroke="#f1f5f9"/>
  
  <!-- Wednesday Row (Active/Selected) -->
  <rect x="290" y="392" width="860" height="76" rx="8" fill="#7C7CF2" fill-opacity="0.05"/>
  <text x="320" y="420" font-family="system-ui, sans-serif" font-size="14" font-weight="600" fill="#7C7CF2">Wednesday</text>
  <text x="320" y="440" font-family="system-ui, sans-serif" font-size="11" fill="#7C7CF2">Late night</text>
  
  <rect x="500" y="402" width="48" height="28" rx="14" fill="#7C7CF2"/>
  <circle cx="534" cy="416" r="10" fill="white"/>
  
  <rect x="620" y="400" width="140" height="40" rx="8" fill="white" stroke="#7C7CF2" stroke-width="2"/>
  <text x="648" y="426" font-family="system-ui, sans-serif" font-size="14" fill="#111827">9:00 AM</text>
  
  <rect x="850" y="400" width="140" height="40" rx="8" fill="white" stroke="#7C7CF2" stroke-width="2"/>
  <text x="878" y="426" font-family="system-ui, sans-serif" font-size="14" font-weight="500" fill="#7C7CF2">8:00 PM</text>
  
  <!-- Break Badge -->
  <rect x="1052" y="400" width="96" height="40" rx="6" fill="#fef3c7"/>
  <text x="1066" y="424" font-family="system-ui, sans-serif" font-size="11" fill="#d97706">12-1 PM</text>
  
  <line x1="300" y1="476" x2="1140" y2="476" stroke="#f1f5f9"/>
  
  <!-- Thursday Row -->
  <text x="320" y="508" font-family="system-ui, sans-serif" font-size="14" font-weight="500" fill="#0B1220">Thursday</text>
  
  <rect x="500" y="490" width="48" height="28" rx="14" fill="#7C7CF2"/>
  <circle cx="534" cy="504" r="10" fill="white"/>
  
  <rect x="620" y="488" width="140" height="40" rx="8" fill="white" stroke="#d1d5db"/>
  <text x="648" y="514" font-family="system-ui, sans-serif" font-size="14" fill="#111827">9:00 AM</text>
  
  <rect x="850" y="488" width="140" height="40" rx="8" fill="white" stroke="#d1d5db"/>
  <text x="878" y="514" font-family="system-ui, sans-serif" font-size="14" fill="#111827">8:00 PM</text>
  
  <rect x="1060" y="492" width="80" height="32" rx="6" fill="#f1f5f9"/>
  <text x="1078" y="514" font-family="system-ui, sans-serif" font-size="12" fill="#7C7CF2">+ Add</text>
  
  <line x1="300" y1="548" x2="1140" y2="548" stroke="#f1f5f9"/>
  
  <!-- Friday Row -->
  <text x="320" y="580" font-family="system-ui, sans-serif" font-size="14" font-weight="500" fill="#0B1220">Friday</text>
  
  <rect x="500" y="562" width="48" height="28" rx="14" fill="#7C7CF2"/>
  <circle cx="534" cy="576" r="10" fill="white"/>
  
  <rect x="620" y="560" width="140" height="40" rx="8" fill="white" stroke="#d1d5db"/>
  <text x="648" y="586" font-family="system-ui, sans-serif" font-size="14" fill="#111827">9:00 AM</text>
  
  <rect x="850" y="560" width="140" height="40" rx="8" fill="white" stroke="#d1d5db"/>
  <text x="878" y="586" font-family="system-ui, sans-serif" font-size="14" fill="#111827">6:00 PM</text>
  
  <rect x="1060" y="564" width="80" height="32" rx="6" fill="#f1f5f9"/>
  <text x="1078" y="586" font-family="system-ui, sans-serif" font-size="12" fill="#7C7CF2">+ Add</text>
  
  <line x1="300" y1="620" x2="1140" y2="620" stroke="#f1f5f9"/>
  
  <!-- Saturday Row -->
  <text x="320" y="652" font-family="system-ui, sans-serif" font-size="14" font-weight="500" fill="#0B1220">Saturday</text>
  
  <rect x="500" y="634" width="48" height="28" rx="14" fill="#7C7CF2"/>
  <circle cx="534" cy="648" r="10" fill="white"/>
  
  <rect x="620" y="632" width="140" height="40" rx="8" fill="white" stroke="#d1d5db"/>
  <text x="648" y="658" font-family="system-ui, sans-serif" font-size="14" fill="#111827">8:00 AM</text>
  
  <rect x="850" y="632" width="140" height="40" rx="8" fill="white" stroke="#d1d5db"/>
  <text x="878" y="658" font-family="system-ui, sans-serif" font-size="14" fill="#111827">5:00 PM</text>
  
  <rect x="1060" y="636" width="80" height="32" rx="6" fill="#f1f5f9"/>
  <text x="1078" y="658" font-family="system-ui, sans-serif" font-size="12" fill="#7C7CF2">+ Add</text>
  
  <line x1="300" y1="692" x2="1140" y2="692" stroke="#f1f5f9"/>
  
  <!-- Sunday Row (Closed) -->
  <text x="320" y="724" font-family="system-ui, sans-serif" font-size="14" font-weight="500" fill="#9ca3af">Sunday</text>
  
  <!-- Toggle Off -->
  <rect x="500" y="706" width="48" height="28" rx="14" fill="#e5e7eb"/>
  <circle cx="514" cy="720" r="10" fill="white"/>
  
  <text x="620" y="724" font-family="system-ui, sans-serif" font-size="14" fill="#9ca3af">Closed</text>
</svg>