<svg width="600" height="400" viewBox="0 0 600 400" fill="none" xmlns="http://www.w3.org/2000/svg">
  <!-- Browser Window -->
  <rect width="600" height="400" rx="12" fill="#1a1a2e"/>
  
  <!-- Title Bar -->
  <rect width="600" height="44" rx="12" fill="#252542"/>
  <rect y="32" width="600" height="12" fill="#252542"/>
  
  <!-- Traffic Lights -->
  <circle cx="20" cy="22" r="6" fill="#FF5F57"/>
  <circle cx="40" cy="22" r="6" fill="#FFBD2E"/>
  <circle cx="60" cy="22" r="6" fill="#28CA41"/>
  
  <!-- URL Bar -->
  <rect x="100" y="10" width="400" height="24" rx="6" fill="#1a1a2e"/>
  <text x="260" y="27" font-family="system-ui, -apple-system, sans-serif" font-size="11" fill="#888">app.neono.io/settings/closed-periods</text>
  
  <!-- Dimmed Background -->
  <rect x="0" y="44" width="600" height="356" fill="#13131f" fill-opacity="0.8"/>
  
  <!-- Modal Section -->
  <rect x="70" y="60" width="460" height="315" rx="16" fill="#1e1e36"/>
  <rect x="70" y="60" width="460" height="315" rx="16" stroke="#3a3a5a" stroke-width="1"/>
  
  <!-- Header -->
  <text x="300" y="100" font-family="system-ui, -apple-system, sans-serif" font-size="18" font-weight="600" fill="#fff" text-anchor="middle">Select Affected Staff</text>
  <text x="300" y="123" font-family="system-ui, -apple-system, sans-serif" font-size="13" fill="#888" text-anchor="middle">Choose which team members will be unavailable</text>
  
  <!-- Staff List -->
  <!-- Select All (selected - grays out others conceptually) -->
  <rect x="110" y="145" width="380" height="44" rx="8" fill="#7C7CF2" fill-opacity="0.15"/>
  <rect x="126" y="159" width="20" height="20" rx="4" fill="#7C7CF2"/>
  <text x="131" y="174" font-family="system-ui, -apple-system, sans-serif" font-size="14" fill="#fff">✓</text>
  <text x="160" y="172" font-family="system-ui, -apple-system, sans-serif" font-size="14" font-weight="500" fill="#fff">Select All Staff</text>
  <rect x="410" y="157" width="70" height="24" rx="12" fill="#7C7CF2" fill-opacity="0.2"/>
  <text x="420" y="174" font-family="system-ui, -apple-system, sans-serif" font-size="11" fill="#7C7CF2">5 selected</text>
  
  <!-- Staff 1 - Sarah (auto-selected) -->
  <rect x="110" y="198" width="380" height="44" rx="8" fill="transparent"/>
  <rect x="126" y="212" width="20" height="20" rx="4" fill="#7C7CF2" fill-opacity="0.5"/>
  <text x="131" y="227" font-family="system-ui, -apple-system, sans-serif" font-size="14" fill="#9999aa">✓</text>
  <circle cx="170" cy="220" r="14" fill="#E879F9"/>
  <text x="163" y="225" font-family="system-ui, -apple-system, sans-serif" font-size="11" fill="#fff">SM</text>
  <text x="195" y="217" font-family="system-ui, -apple-system, sans-serif" font-size="14" fill="#9999aa">Sarah Martinez</text>
  <text x="195" y="235" font-family="system-ui, -apple-system, sans-serif" font-size="11" fill="#666">Senior Stylist</text>
  
  <!-- Staff 2 - James -->
  <rect x="110" y="248" width="380" height="44" rx="8" fill="transparent"/>
  <rect x="126" y="262" width="20" height="20" rx="4" fill="#7C7CF2" fill-opacity="0.5"/>
  <text x="131" y="277" font-family="system-ui, -apple-system, sans-serif" font-size="14" fill="#9999aa">✓</text>
  <circle cx="170" cy="270" r="14" fill="#60A5FA"/>
  <text x="163" y="275" font-family="system-ui, -apple-system, sans-serif" font-size="11" fill="#fff">JW</text>
  <text x="195" y="267" font-family="system-ui, -apple-system, sans-serif" font-size="14" fill="#9999aa">James Wilson</text>
  <text x="195" y="285" font-family="system-ui, -apple-system, sans-serif" font-size="11" fill="#666">Stylist</text>
  
  <!-- Staff 3 - Emily -->
  <rect x="110" y="298" width="380" height="44" rx="8" fill="transparent"/>
  <rect x="126" y="312" width="20" height="20" rx="4" fill="#7C7CF2" fill-opacity="0.5"/>
  <text x="131" y="327" font-family="system-ui, -apple-system, sans-serif" font-size="14" fill="#9999aa">✓</text>
  <circle cx="170" cy="320" r="14" fill="#34D399"/>
  <text x="163" y="325" font-family="system-ui, -apple-system, sans-serif" font-size="11" fill="#fff">EB</text>
  <text x="195" y="317" font-family="system-ui, -apple-system, sans-serif" font-size="14" fill="#9999aa">Emily Brown</text>
  <text x="195" y="335" font-family="system-ui, -apple-system, sans-serif" font-size="11" fill="#666">Nail Technician</text>
  
  <!-- Note about Select All -->
  <rect x="110" y="350" width="380" height="24" rx="6" fill="#7C7CF2" fill-opacity="0.1"/>
  <text x="300" y="367" font-family="system-ui, -apple-system, sans-serif" font-size="11" fill="#7C7CF2" text-anchor="middle">💡 "Select All" is ideal for holidays and business closures</text>
</svg>