<svg width="1100" height="600" viewBox="0 0 1100 600" fill="none" xmlns="http://www.w3.org/2000/svg">
  <!-- Browser Window -->
  <rect width="1100" height="600" rx="12" fill="#1a1a2e"/>
  
  <!-- Title Bar -->
  <rect width="1100" height="48" rx="12" fill="#252542"/>
  <rect y="36" width="1100" height="12" fill="#252542"/>
  
  <!-- Traffic Lights -->
  <circle cx="20" cy="24" r="6" fill="#FF5F57"/>
  <circle cx="40" cy="24" r="6" fill="#FFBD2E"/>
  <circle cx="60" cy="24" r="6" fill="#28CA41"/>
  
  <!-- URL Bar -->
  <rect x="150" y="12" width="800" height="24" rx="6" fill="#1a1a2e"/>
  <text x="480" y="29" font-family="system-ui, -apple-system, sans-serif" font-size="11" fill="#888">app.neono.io/settings/resources</text>
  
  <!-- Sidebar -->
  <rect x="0" y="48" width="200" height="552" fill="#1e1e36"/>
  
  <!-- Logo -->
  <rect x="16" y="64" width="168" height="36" rx="6" fill="#252542"/>
  <text x="60" y="88" font-family="system-ui, -apple-system, sans-serif" font-size="16" font-weight="bold" fill="#7C7CF2">NeonO</text>
  
  <!-- Sidebar Items -->
  <rect x="16" y="116" width="168" height="36" rx="6" fill="transparent"/>
  <text x="40" y="140" font-family="system-ui, -apple-system, sans-serif" font-size="13" fill="#888">Calendar</text>
  
  <rect x="16" y="160" width="168" height="36" rx="6" fill="transparent"/>
  <text x="40" y="184" font-family="system-ui, -apple-system, sans-serif" font-size="13" fill="#888">Clients</text>
  
  <rect x="16" y="204" width="168" height="36" rx="6" fill="#7C7CF2" fill-opacity="0.15"/>
  <text x="40" y="228" font-family="system-ui, -apple-system, sans-serif" font-size="13" fill="#7C7CF2">Settings</text>
  
  <!-- Settings Submenu -->
  <text x="56" y="264" font-family="system-ui, -apple-system, sans-serif" font-size="12" fill="#888">Business Setup</text>
  <rect x="56" y="276" width="120" height="28" rx="4" fill="#7C7CF2" fill-opacity="0.1"/>
  <text x="72" y="295" font-family="system-ui, -apple-system, sans-serif" font-size="12" fill="#7C7CF2">Resources</text>
  
  <!-- Main Content -->
  <rect x="200" y="48" width="900" height="552" fill="#13131f"/>
  
  <!-- Page Header -->
  <rect x="200" y="48" width="900" height="80" fill="#1a1a2e"/>
  
  <text x="240" y="90" font-family="system-ui, -apple-system, sans-serif" font-size="24" font-weight="600" fill="#fff">Resources</text>
  <text x="240" y="115" font-family="system-ui, -apple-system, sans-serif" font-size="13" fill="#888">Manage rooms and equipment for your services</text>
  
  <!-- Add Resource Button -->
  <rect x="960" y="78" width="120" height="36" rx="8" fill="#7C7CF2"/>
  <text x="985" y="102" font-family="system-ui, -apple-system, sans-serif" font-size="13" font-weight="500" fill="#fff">+ Add Resource</text>
  
  <!-- Table -->
  <rect x="240" y="148" width="820" height="420" rx="12" fill="#1e1e36"/>
  
  <!-- Table Header -->
  <rect x="240" y="148" width="820" height="48" rx="12" fill="#252542"/>
  <rect x="240" y="184" width="820" height="12" fill="#252542"/>
  
  <text x="280" y="178" font-family="system-ui, -apple-system, sans-serif" font-size="12" font-weight="600" fill="#888">NAME</text>
  <text x="520" y="178" font-family="system-ui, -apple-system, sans-serif" font-size="12" font-weight="600" fill="#888">TYPE</text>
  <text x="660" y="178" font-family="system-ui, -apple-system, sans-serif" font-size="12" font-weight="600" fill="#888">LINKED SERVICES</text>
  <text x="900" y="178" font-family="system-ui, -apple-system, sans-serif" font-size="12" font-weight="600" fill="#888">STATUS</text>
  
  <!-- Row 1 -->
  <line x1="260" y1="256" x2="1040" y2="256" stroke="#252542" stroke-width="1"/>
  <circle cx="290" cy="228" r="18" fill="#60A5FA" fill-opacity="0.2"/>
  <rect x="282" y="220" width="16" height="16" rx="3" fill="#60A5FA"/>
  <text x="320" y="224" font-family="system-ui, -apple-system, sans-serif" font-size="14" fill="#fff">Massage Table 1</text>
  <text x="320" y="244" font-family="system-ui, -apple-system, sans-serif" font-size="12" fill="#888">Spa Room A</text>
  
  <rect x="520" y="218" width="80" height="24" rx="12" fill="#60A5FA" fill-opacity="0.2"/>
  <text x="537" y="235" font-family="system-ui, -apple-system, sans-serif" font-size="11" fill="#60A5FA">Equipment</text>
  
  <text x="660" y="233" font-family="system-ui, -apple-system, sans-serif" font-size="13" fill="#9999aa">Massage, Hot Stone</text>
  
  <rect x="900" y="218" width="60" height="24" rx="12" fill="#10B981" fill-opacity="0.2"/>
  <text x="915" y="235" font-family="system-ui, -apple-system, sans-serif" font-size="11" fill="#10B981">Active</text>
  
  <text x="1000" y="233" font-family="system-ui, -apple-system, sans-serif" font-size="16" fill="#888">⋮</text>
  
  <!-- Row 2 -->
  <line x1="260" y1="316" x2="1040" y2="316" stroke="#252542" stroke-width="1"/>
  <circle cx="290" cy="288" r="18" fill="#E879F9" fill-opacity="0.2"/>
  <rect x="282" y="280" width="16" height="16" rx="3" fill="#E879F9"/>
  <text x="320" y="284" font-family="system-ui, -apple-system, sans-serif" font-size="14" fill="#fff">Pedicure Chair 1</text>
  <text x="320" y="304" font-family="system-ui, -apple-system, sans-serif" font-size="12" fill="#888">Nail Station</text>
  
  <rect x="520" y="278" width="80" height="24" rx="12" fill="#60A5FA" fill-opacity="0.2"/>
  <text x="537" y="295" font-family="system-ui, -apple-system, sans-serif" font-size="11" fill="#60A5FA">Equipment</text>
  
  <text x="660" y="293" font-family="system-ui, -apple-system, sans-serif" font-size="13" fill="#9999aa">Pedicure, Gel Pedicure</text>
  
  <rect x="900" y="278" width="60" height="24" rx="12" fill="#10B981" fill-opacity="0.2"/>
  <text x="915" y="295" font-family="system-ui, -apple-system, sans-serif" font-size="11" fill="#10B981">Active</text>
  
  <text x="1000" y="293" font-family="system-ui, -apple-system, sans-serif" font-size="16" fill="#888">⋮</text>
  
  <!-- Row 3 -->
  <line x1="260" y1="376" x2="1040" y2="376" stroke="#252542" stroke-width="1"/>
  <circle cx="290" cy="348" r="18" fill="#E879F9" fill-opacity="0.2"/>
  <rect x="282" y="340" width="16" height="16" rx="3" fill="#E879F9"/>
  <text x="320" y="344" font-family="system-ui, -apple-system, sans-serif" font-size="14" fill="#fff">Pedicure Chair 2</text>
  <text x="320" y="364" font-family="system-ui, -apple-system, sans-serif" font-size="12" fill="#888">Nail Station</text>
  
  <rect x="520" y="338" width="80" height="24" rx="12" fill="#60A5FA" fill-opacity="0.2"/>
  <text x="537" y="355" font-family="system-ui, -apple-system, sans-serif" font-size="11" fill="#60A5FA">Equipment</text>
  
  <text x="660" y="353" font-family="system-ui, -apple-system, sans-serif" font-size="13" fill="#9999aa">Pedicure, Gel Pedicure</text>
  
  <rect x="885" y="338" width="90" height="24" rx="12" fill="#F59E0B" fill-opacity="0.2"/>
  <text x="895" y="355" font-family="system-ui, -apple-system, sans-serif" font-size="11" fill="#F59E0B">Maintenance</text>
  
  <text x="1000" y="353" font-family="system-ui, -apple-system, sans-serif" font-size="16" fill="#888">⋮</text>
  
  <!-- Row 4 -->
  <line x1="260" y1="436" x2="1040" y2="436" stroke="#252542" stroke-width="1"/>
  <circle cx="290" cy="408" r="18" fill="#10B981" fill-opacity="0.2"/>
  <rect x="282" y="400" width="16" height="16" rx="3" fill="#10B981"/>
  <text x="320" y="404" font-family="system-ui, -apple-system, sans-serif" font-size="14" fill="#fff">VIP Treatment Room</text>
  <text x="320" y="424" font-family="system-ui, -apple-system, sans-serif" font-size="12" fill="#888">Private Suite</text>
  
  <rect x="520" y="398" width="55" height="24" rx="12" fill="#10B981" fill-opacity="0.2"/>
  <text x="533" y="415" font-family="system-ui, -apple-system, sans-serif" font-size="11" fill="#10B981">Room</text>
  
  <text x="660" y="413" font-family="system-ui, -apple-system, sans-serif" font-size="13" fill="#9999aa">Facials, Body Wraps</text>
  
  <rect x="900" y="398" width="60" height="24" rx="12" fill="#10B981" fill-opacity="0.2"/>
  <text x="915" y="415" font-family="system-ui, -apple-system, sans-serif" font-size="11" fill="#10B981">Active</text>
  
  <text x="1000" y="413" font-family="system-ui, -apple-system, sans-serif" font-size="16" fill="#888">⋮</text>
  
  <!-- Row 5 -->
  <circle cx="290" cy="468" r="18" fill="#FBBF24" fill-opacity="0.2"/>
  <rect x="282" y="460" width="16" height="16" rx="3" fill="#FBBF24"/>
  <text x="320" y="464" font-family="system-ui, -apple-system, sans-serif" font-size="14" fill="#fff">Styling Stations 1-4</text>
  <text x="320" y="484" font-family="system-ui, -apple-system, sans-serif" font-size="12" fill="#888">Main Floor</text>
  
  <rect x="520" y="458" width="80" height="24" rx="12" fill="#60A5FA" fill-opacity="0.2"/>
  <text x="537" y="475" font-family="system-ui, -apple-system, sans-serif" font-size="11" fill="#60A5FA">Equipment</text>
  
  <text x="660" y="473" font-family="system-ui, -apple-system, sans-serif" font-size="13" fill="#9999aa">All Hair Services</text>
  
  <rect x="900" y="458" width="60" height="24" rx="12" fill="#10B981" fill-opacity="0.2"/>
  <text x="915" y="475" font-family="system-ui, -apple-system, sans-serif" font-size="11" fill="#10B981">Active</text>
  
  <text x="1000" y="473" font-family="system-ui, -apple-system, sans-serif" font-size="16" fill="#888">⋮</text>
  
  <!-- Footer -->
  <text x="640" y="540" font-family="system-ui, -apple-system, sans-serif" font-size="12" fill="#666" text-anchor="middle">Showing 5 resources</text>
</svg>