<svg width="1200" height="800" xmlns="http://www.w3.org/2000/svg">
  <defs>
    <linearGradient id="browserGrad" x1="0%" y1="0%" x2="0%" y2="100%">
      <stop offset="0%" style="stop-color:#2D3748"/>
      <stop offset="100%" style="stop-color:#1A202C"/>
    </linearGradient>
    <filter id="shadow" x="-20%" y="-20%" width="140%" height="140%">
      <feDropShadow dx="0" dy="4" stdDeviation="8" flood-opacity="0.3"/>
    </filter>
  </defs>
  
  <!-- Browser Window -->
  <rect width="1200" height="800" fill="#0B1220"/>
  <rect x="60" y="40" width="1080" height="720" rx="12" fill="#1a1a2e" filter="url(#shadow)"/>
  
  <!-- Browser Chrome -->
  <rect x="60" y="40" width="1080" height="44" rx="12" fill="url(#browserGrad)"/>
  <rect x="60" y="72" width="1080" height="12" fill="url(#browserGrad)"/>
  <circle cx="88" cy="62" r="7" fill="#FF5F56"/>
  <circle cx="112" cy="62" r="7" fill="#FFBD2E"/>
  <circle cx="136" cy="62" r="7" fill="#27CA40"/>
  
  <!-- URL Bar -->
  <rect x="200" y="52" width="400" height="24" rx="4" fill="#0B1220"/>
  <text x="220" y="69" font-family="system-ui" font-size="12" fill="#718096">app.neono.io/services</text>
  
  <!-- Main Content Area -->
  <rect x="60" y="84" width="1080" height="676" fill="#0f0f1a"/>
  
  <!-- Left Sidebar -->
  <rect x="60" y="84" width="220" height="676" fill="#141428"/>
  <text x="100" y="124" font-family="system-ui" font-size="20" font-weight="bold" fill="#7C7CF2">NeonO</text>
  
  <!-- Sidebar Items -->
  <text x="115" y="177" font-family="system-ui" font-size="14" fill="#A0AEC0">Dashboard</text>
  <text x="115" y="225" font-family="system-ui" font-size="14" fill="#A0AEC0">Calendar</text>
  <text x="115" y="273" font-family="system-ui" font-size="14" fill="#A0AEC0">Clients</text>
  
  <!-- Services - HIGHLIGHTED -->
  <rect x="75" y="286" width="190" height="44" rx="8" fill="#7C7CF2" fill-opacity="0.15"/>
  <rect x="72" y="286" width="4" height="44" rx="2" fill="#7C7CF2"/>
  <text x="115" y="313" font-family="system-ui" font-size="14" font-weight="600" fill="#7C7CF2">Services</text>
  
  <text x="115" y="361" font-family="system-ui" font-size="14" fill="#A0AEC0">Staff</text>
  <text x="115" y="409" font-family="system-ui" font-size="14" fill="#A0AEC0">Settings</text>
  
  <!-- Main Content -->
  <rect x="300" y="100" width="820" height="640" fill="#0f0f1a"/>
  
  <!-- Page Header -->
  <text x="340" y="150" font-family="system-ui" font-size="28" font-weight="bold" fill="#FFFFFF">Services</text>
  <text x="340" y="175" font-family="system-ui" font-size="14" fill="#718096">Manage your service menu</text>
  
  <!-- Add Service Button - HIGHLIGHTED -->
  <rect x="920" y="125" width="160" height="48" rx="8" fill="#7C7CF2"/>
  <text x="960" y="155" font-family="system-ui" font-size="14" font-weight="600" fill="#FFFFFF">+ Add Service</text>
  
  <!-- Pulse animation -->
  <rect x="915" y="120" width="170" height="58" rx="10" fill="none" stroke="#7C7CF2" stroke-width="3" opacity="0.5">
    <animate attributeName="opacity" values="0.5;0;0.5" dur="1.5s" repeatCount="indefinite"/>
  </rect>
  
  <!-- Category Tabs -->
  <rect x="340" y="200" width="100" height="36" rx="6" fill="#7C7CF2"/>
  <text x="370" y="224" font-family="system-ui" font-size="13" font-weight="500" fill="#FFFFFF">All</text>
  
  <rect x="450" y="200" width="100" height="36" rx="6" fill="transparent" stroke="#2D3748"/>
  <text x="485" y="224" font-family="system-ui" font-size="13" fill="#A0AEC0">Hair</text>
  
  <rect x="560" y="200" width="100" height="36" rx="6" fill="transparent" stroke="#2D3748"/>
  <text x="593" y="224" font-family="system-ui" font-size="13" fill="#A0AEC0">Nails</text>
  
  <rect x="670" y="200" width="100" height="36" rx="6" fill="transparent" stroke="#2D3748"/>
  <text x="705" y="224" font-family="system-ui" font-size="13" fill="#A0AEC0">Spa</text>
  
  <!-- Services Grid -->
  <rect x="340" y="255" width="740" height="480" rx="12" fill="#1a1a2e"/>
  
  <!-- Hair Services Section -->
  <text x="370" y="295" font-family="system-ui" font-size="14" font-weight="600" fill="#7C7CF2">✂️ HAIR SERVICES</text>
  <text x="1000" y="295" font-family="system-ui" font-size="12" fill="#718096">4 services</text>
  
  <!-- Service Card 1 -->
  <rect x="370" y="315" width="340" height="90" rx="8" fill="#0f0f1a" stroke="#2D3748"/>
  <text x="400" y="345" font-family="system-ui" font-size="15" font-weight="500" fill="#FFFFFF">Women's Haircut</text>
  <rect x="550" y="328" width="60" height="22" rx="4" fill="#48BB78" fill-opacity="0.2"/>
  <text x="560" y="343" font-family="system-ui" font-size="10" fill="#48BB78">Online</text>
  <text x="400" y="368" font-family="system-ui" font-size="13" fill="#718096">45 min</text>
  <text x="480" y="368" font-family="system-ui" font-size="13" fill="#FFFFFF">$65</text>
  <text x="400" y="390" font-family="system-ui" font-size="12" fill="#4A5568">2 staff assigned</text>
  <text x="680" y="365" font-family="system-ui" font-size="18" fill="#4A5568">⋮</text>
  
  <!-- Service Card 2 -->
  <rect x="730" y="315" width="340" height="90" rx="8" fill="#0f0f1a" stroke="#2D3748"/>
  <text x="760" y="345" font-family="system-ui" font-size="15" font-weight="500" fill="#FFFFFF">Color Service</text>
  <rect x="880" y="328" width="60" height="22" rx="4" fill="#48BB78" fill-opacity="0.2"/>
  <text x="890" y="343" font-family="system-ui" font-size="10" fill="#48BB78">Online</text>
  <text x="760" y="368" font-family="system-ui" font-size="13" fill="#718096">2 hr</text>
  <text x="820" y="368" font-family="system-ui" font-size="13" fill="#FFFFFF">from $120</text>
  <text x="760" y="390" font-family="system-ui" font-size="12" fill="#4A5568">1 staff assigned</text>
  <text x="1040" y="365" font-family="system-ui" font-size="18" fill="#4A5568">⋮</text>
  
  <!-- Service Card 3 -->
  <rect x="370" y="420" width="340" height="90" rx="8" fill="#0f0f1a" stroke="#2D3748"/>
  <text x="400" y="450" font-family="system-ui" font-size="15" font-weight="500" fill="#FFFFFF">Blowout</text>
  <rect x="480" y="433" width="60" height="22" rx="4" fill="#48BB78" fill-opacity="0.2"/>
  <text x="490" y="448" font-family="system-ui" font-size="10" fill="#48BB78">Online</text>
  <text x="400" y="473" font-family="system-ui" font-size="13" fill="#718096">30 min</text>
  <text x="470" y="473" font-family="system-ui" font-size="13" fill="#FFFFFF">$45</text>
  <text x="400" y="495" font-family="system-ui" font-size="12" fill="#4A5568">2 staff assigned</text>
  <text x="680" y="470" font-family="system-ui" font-size="18" fill="#4A5568">⋮</text>
  
  <!-- Service Card 4 -->
  <rect x="730" y="420" width="340" height="90" rx="8" fill="#0f0f1a" stroke="#2D3748"/>
  <text x="760" y="450" font-family="system-ui" font-size="15" font-weight="500" fill="#FFFFFF">Men's Haircut</text>
  <rect x="880" y="433" width="60" height="22" rx="4" fill="#48BB78" fill-opacity="0.2"/>
  <text x="890" y="448" font-family="system-ui" font-size="10" fill="#48BB78">Online</text>
  <text x="760" y="473" font-family="system-ui" font-size="13" fill="#718096">30 min</text>
  <text x="830" y="473" font-family="system-ui" font-size="13" fill="#FFFFFF">$45</text>
  <text x="760" y="495" font-family="system-ui" font-size="12" fill="#4A5568">1 staff assigned</text>
  <text x="1040" y="470" font-family="system-ui" font-size="18" fill="#4A5568">⋮</text>
  
  <!-- Nail Services Section -->
  <text x="370" y="550" font-family="system-ui" font-size="14" font-weight="600" fill="#ED8936">💅 NAIL SERVICES</text>
  <text x="1000" y="550" font-family="system-ui" font-size="12" fill="#718096">3 services</text>
  
  <!-- Service Card 5 -->
  <rect x="370" y="570" width="340" height="90" rx="8" fill="#0f0f1a" stroke="#2D3748"/>
  <text x="400" y="600" font-family="system-ui" font-size="15" font-weight="500" fill="#FFFFFF">Manicure</text>
  <rect x="490" y="583" width="60" height="22" rx="4" fill="#48BB78" fill-opacity="0.2"/>
  <text x="500" y="598" font-family="system-ui" font-size="10" fill="#48BB78">Online</text>
  <text x="400" y="623" font-family="system-ui" font-size="13" fill="#718096">30 min</text>
  <text x="470" y="623" font-family="system-ui" font-size="13" fill="#FFFFFF">$35</text>
  <text x="400" y="645" font-family="system-ui" font-size="12" fill="#4A5568">1 staff assigned</text>
  
  <!-- Stats Bar -->
  <rect x="370" y="680" width="700" height="40" rx="8" fill="#0f0f1a"/>
  <text x="400" y="706" font-family="system-ui" font-size="12" fill="#718096">Total: 7 services</text>
  <text x="550" y="706" font-family="system-ui" font-size="12" fill="#48BB78">● 7 Online</text>
  <text x="680" y="706" font-family="system-ui" font-size="12" fill="#718096">○ 0 In-Store Only</text>
</svg>